# xmcd CD database file
#
# Track frame offsets:
#	150
#	22745
#	52617
#	70587
#	88410
#	116917
#
# Disc length: 2328 seconds
#
# Revision: 5
# Processed by: cddbd v1.5.1PL2 Copyright (c) Steve Scherf et al.
# Submitted via: CDex 1.51
#
DISCID=42091606
DTITLE=Johannes Schmoelling - Wuivend Riet
DYEAR=1987
DGENRE=Electronic
TTITLE0=Matjora is Still Alive
TTITLE1=Zeit (for Stephan)
TTITLE2=Kneeplay No. 9
TTITLE3=Walking on Wooden Legs
TTITLE4=Wuivend Riet Part I
TTITLE5=Wuivend Riet Part II
EXTD=YEAR: 1987
EXTT0=
EXTT1=
EXTT2=
EXTT3=
EXTT4=
EXTT5=
PLAYORDER=
